PathFileType	3	(X/Y/Z)	D:\minhoCalibration\240510\subject3_KPNP\preferred\preferred19.trc
DataRate	CameraRate	NumFrames	NumMarkers	Units	OrigDataRate	OrigDataStartFrame	OrigNumFrames
200.0	200.0	30	10	mm	200.0	135	131	
Frame#	Time	Left_Ankle_Outer1			Left_Ankle_Inner1			Left_Knee_Outer1			Left_Knee_Inner1			Left_Wrist1			Right_Wrist1			Right_Knee_Inner1			Right_Knee_Outer1			Right_Ankle_Inner1			Right_Ankle_Outer1			
		X1	Y1	Z1	X2	Y2	Z2	X3	Y3	Z3	X4	Y4	Z4	X5	Y5	Z5	X6	Y6	Z6	X7	Y7	Z7	X8	Y8	Z8	X9	Y9	Z9	X10	Y10	Z10	
135	0.665	-352.31497	82.062691	-526.3252	-408.56363	91.103363	-526.20941	-270.9407	498.06503	-394.2645	-377.37088	501.01108	-382.70425	-245.41722	873.0437	-539.71143	-573.10327	883.18927	-684.36688	-580.83429	436.37814	-746.03381	-648.17126	512.27307	-807.89801	-440.01608	153.11656	-1021.3087	-506.13196	192.81737	-1090.0972
136	0.67	-351.86752	82.101532	-525.62665	-407.33246	91.845795	-525.90485	-268.49567	497.86578	-392.82385	-374.58661	500.48883	-381.19257	-241.13338	875.67902	-537.24469	-572.77289	885.53149	-673.46417	-587.45026	438.25806	-732.52869	-655.48175	514.823	-792.94928	-446.14725	161.53012	-1015.2889	-513.40472	201.02464	-1082.5574
137	0.675	-350.90634	82.617599	-525.04773	-406.00903	92.546249	-525.49994	-266.14017	497.88052	-391.27304	-371.80505	500.29498	-379.88693	-236.79617	878.36316	-534.85303	-572.2287	888.1106	-662.46185	-593.84149	440.1152	-718.86414	-662.77069	517.3465	-777.25854	-452.27374	170.44588	-1008.7602	-521.32373	209.50836	-1073.6903
138	0.68	-349.75403	83.126755	-524.50116	-404.89828	93.428612	-525.10114	-263.78146	498.16272	-389.68527	-368.871	500.20319	-378.57504	-232.21402	881.04065	-532.79749	-571.42902	890.92035	-651.44043	-600.19977	442.1069	-704.354	-669.75439	520.24005	-760.9906	-459.00415	180.02907	-1001.7834	-530.6781	219.28325	-1065.0327
139	0.685	-347.84082	84.282616	-524.46503	-403.71756	94.330284	-524.69897	-261.42337	498.68057	-388.25262	-366.06262	500.72772	-377.33276	-227.43164	883.76331	-531.23553	-570.41486	893.90552	-640.41925	-606.33612	444.25378	-688.97064	-676.38855	523.31232	-744.34772	-466.48151	190.01758	-994.63202	-540.37903	228.29037	-1054.541
140	0.69	-347.99387	84.280846	-523.39038	-402.58801	95.347237	-524.38556	-258.98868	499.30637	-387.0256	-363.33282	501.25803	-376.07367	-222.61977	886.54449	-529.79529	-569.38562	897.16412	-629.22083	-612.16815	446.96179	-672.18811	-682.48596	526.5722	-727.01221	-472.96799	201.1765	-986.77435	-550.80817	236.16769	-1041.5732
141	0.695	-346.74265	85.167839	-523.18951	-401.74313	96.308151	-523.93512	-256.52603	500.03452	-386.10568	-360.25604	501.98163	-375.06738	-217.73753	889.21564	-528.71124	-568.31213	900.63098	-617.97211	-617.43884	450.20255	-654.27094	-688.00952	530.00446	-708.6864	-479.94162	212.98703	-978.34991	-562.54938	251.91682	-1033.6248
142	0.7	-346.03101	85.877136	-522.82056	-400.79407	97.233902	-523.49493	-253.99368	500.67557	-385.57205	-357.31158	502.90305	-373.97852	-212.52531	891.88507	-528.18146	-567.01581	904.46533	-606.72156	-621.92188	453.70529	-635.46436	-692.8349	533.50946	-689.81464	-486.9277	225.48961	-968.98199	-570.49963	257.35562	-1021.6357
143	0.705	-345.12854	86.68692	-522.54785	-400.13031	98.368195	-523.17371	-251.34128	501.26685	-385.4725	-354.02109	503.79944	-373.2189	-208.09488	894.30701	-527.90393	-565.49542	908.48804	-595.21338	-625.45221	457.5076	-615.99841	-696.56146	536.58282	-669.0191	-494.31366	238.83206	-958.80292	-581.64948	268.41446	-1007.1819
144	0.71	-344.58224	87.460114	-522.29462	-399.50571	99.495003	-522.77441	-248.39937	501.84299	-385.96344	-350.78394	504.58801	-372.4577	-203.58609	896.5448	-527.64282	-563.53259	912.66547	-583.84314	-628.04242	461.58899	-596.42822	-700.63464	540.62439	-648.27661	-501.06998	253.73318	-948.44421	-591.55066	280.19434	-995.79633
145	0.715	-344.02798	88.417503	-522.02899	-398.98843	100.64644	-522.22534	-245.48999	502.32483	-386.936	-347.44962	505.52304	-371.77237	-199.16489	898.75714	-527.81183	-561.64417	917.00958	-572.16138	-629.16937	465.66443	-577.15173	-703.86371	544.97986	-628.0683	-506.62656	269.6217	-937.19946	-601.17749	292.35153	-981.08826
146	0.72	-343.57083	89.35849	-521.8739	-398.6813	101.98778	-521.74017	-242.5152	502.8761	-388.22864	-343.85654	506.47015	-371.51968	-194.92578	900.81293	-528.45001	-559.04932	921.53992	-561.09003	-629.18726	469.73608	-557.13806	-707.32928	549.24921	-605.43274	-513.20184	285.31042	-924.38403	-610.47736	304.75003	-965.14569
147	0.725	-343.22284	90.393661	-521.7229	-398.46884	103.30099	-521.15387	-239.43352	503.46445	-390.05209	-340.50735	507.37048	-371.24277	-190.80789	902.74603	-529.27808	-556.32483	926.93298	-549.97321	-627.3504	473.92142	-537.68579	-710.00775	554.17529	-582.45129	-519.90723	301.22464	-910.27008	-617.76947	320.20834	-949.89819
148	0.73	-343.1647	91.4916	-521.4231	-398.36096	104.85263	-520.59723	-236.44342	504.08429	-392.03674	-337.11816	508.29251	-370.80032	-186.37614	904.77155	-530.71246	-553.12952	932.27045	-539.41473	-626.73761	479.05389	-517.15436	-712.36273	559.617	-559.30646	-527.14423	316.75726	-894.95001	-626.26044	335.38049	-932.33392
149	0.735	-343.06467	92.766014	-521.37085	-398.37234	106.31361	-519.79602	-233.44116	504.80377	-394.32529	-333.60455	509.21832	-370.7637	-182.05424	906.75018	-532.52826	-549.85986	937.60498	-528.69824	-623.90552	484.11484	-496.98065	-714.07251	565.77106	-535.18768	-534.54028	332.14432	-878.73566	-632.55518	353.20999	-915.7865
150	0.74	-343.20392	94.165146	-521.07129	-398.55566	107.93797	-518.97333	-230.68446	505.59277	-396.72186	-330.04861	510.35641	-370.72986	-178.57584	908.44147	-534.28278	-545.62836	943.43982	-518.00409	-620.86829	489.90494	-477.09607	-714.9386	572.56952	-510.06055	-541.9942	347.43143	-862.07739	-642.12067	368.68015	-896.02661
151	0.745	-343.35214	95.752159	-520.83551	-399.16757	109.77979	-517.74823	-227.8125	506.41571	-399.20819	-326.59299	511.63947	-370.5112	-175.00195	910.16626	-536.68353	-541.61267	949.07745	-508.43973	-617.52106	496.22067	-457.15952	-715.13635	580.12854	-484.25577	-549.54248	362.42886	-844.75006	-649.62036	386.05255	-876.94965
152	0.75	-343.8909	97.343185	-520.45544	-399.336	111.75632	-517.19067	-225.32227	507.37048	-401.50433	-323.32364	513.24921	-370.16681	-173.07623	911.07959	-539.27899	-536.35516	955.67957	-499.02884	-614.14709	503.24042	-436.96567	-714.45862	588.49176	-457.8295	-557.67047	377.52655	-826.5957	-658.49615	404.35358	-855.53601
153	0.755	-344.45782	99.154877	-519.99951	-399.91437	113.91493	-515.96539	-223.0843	508.32535	-403.96423	-319.78806	514.71271	-370.13422	-169.60497	912.66779	-542.6629	-531.88733	962.21539	-489.78583	-610.80304	511.06317	-416.48325	-712.81232	597.96936	-431.32639	-566.04535	392.65948	-807.94684	-666.80493	421.49979	-834.77448
154	0.76	-345.9071	100.93705	-519.22278	-400.80957	116.0948	-514.4917	-220.485	509.60272	-406.07492	-316.56335	516.48883	-369.67691	-167.05292	913.91455	-546.29376	-526.72101	968.52881	-481.59192	-607.32129	519.81506	-395.59082	-710.36963	609.10767	-405.07993	-574.77698	407.8241	-789.01306	-675.19043	438.55435	-813.28741
155	0.765	-346.84106	103.04942	-518.67865	-401.71173	118.38593	-512.98767	-218.27446	510.96768	-408.1048	-313.1951	518.28949	-369.24191	-164.64603	915.21912	-550.25916	-521.07709	975.67456	-473.57941	-603.62689	529.56866	-373.68076	-706.55206	620.82593	-379.36926	-584.05328	423.16434	-769.40515	-684.47455	459.51682	-788.30096
156	0.77	-347.61453	105.33632	-518.28333	-402.98892	120.90121	-511.27231	-216.13885	512.46747	-409.88202	-309.7355	520.25244	-368.74707	-162.52173	916.3175	-554.65466	-515.88971	982.61761	-465.71048	-599.82794	540.4787	-351.42221	-702.09363	633.46887	-353.56131	-593.987	438.66757	-749.01111	-694.9209	474.34601	-764.25769
157	0.775	-348.84598	107.3403	-517.54572	-404.08029	123.24616	-509.49954	-213.93098	514.06818	-411.70383	-306.30322	522.34979	-368.0488	-161.28029	917.03375	-559.26251	-509.31348	989.6178	-459.17593	-595.68274	552.61267	-328.74759	-696.36816	646.53821	-328.43753	-604.26031	454.4353	-728.04657	-704.30768	492.13184	-740.19366
158	0.78	-350.76584	109.31107	-516.53033	-405.43781	125.60807	-507.56018	-211.69348	515.83411	-413.43646	-302.94699	524.48346	-367.25092	-159.14268	917.88147	-564.56879	-503.61508	996.78998	-452.20844	-590.82794	565.05756	-306.41364	-689.93182	660.95978	-303.74969	-614.94928	470.23529	-706.32874	-715.35156	509.02557	-713.7464
159	0.785	-351.40311	111.8854	-516.20612	-406.44556	128.21219	-505.43274	-209.57376	517.5249	-415.1167	-299.34674	526.92468	-366.48526	-157.7061	918.43927	-570.23108	-497.23102	1003.8053	-446.233	-584.85223	579.32764	-282.84125	-682.56506	676.31708	-279.98288	-626.20813	485.90567	-683.92407	-725.88782	527.71954	-686.50745
160	0.79	-352.84195	113.88797	-515.17163	-407.88626	130.25476	-503.30664	-207.77495	519.18494	-416.5051	-296.07745	529.27936	-365.63339	-156.8179	918.784	-576.08667	-490.62573	1010.8427	-440.63504	-578.74426	593.39905	-260.21439	-674.51813	692.47485	-256.98547	-637.36615	502.04855	-660.75238	-736.56604	546.2019	-657.73602
161	0.795	-354.50107	115.46326	-514.31573	-409.06119	132.3586	-501.08862	-205.59894	520.70825	-418.12653	-292.49902	531.84644	-364.83127	-155.8983	919.0683	-582.35657	-484.00143	1017.5781	-435.6813	-571.39618	608.7937	-237.88976	-665.19824	709.29791	-234.48178	-649.30231	517.6391	-636.55194	-747.13232	566.77911	-627.75201
162	0.8	-356.37845	117.02443	-512.82056	-410.15424	134.53577	-499.0061	-203.25418	522.15845	-419.77448	-289.09824	534.11115	-364.10846	-155.69028	918.98425	-588.56732	-477.42368	1024.4083	-431.18469	-562.99139	625.09283	-216.18652	-655.05157	726.52582	-212.5752	-660.81543	533.49359	-611.80292	-757.54352	582.36737	-599.25623
163	0.805	-357.08286	119.28642	-512.26245	-411.28125	136.4458	-496.75153	-201.4142	523.3454	-421.20605	-285.55301	536.31635	-363.39743	-155.58632	918.86578	-595.02216	-471.02081	1031.2468	-427.25754	-554.03613	641.33466	-194.96307	-643.31049	744.67651	-191.89203	-672.60437	548.89709	-585.79962	-767.44714	599.75604	-569.96875
164	0.81	-359.14865	120.33023	-510.88126	-411.95163	137.87523	-494.08075	-199.31145	524.1449	-422.78149	-282.3707	537.92889	-362.63675	-156.17651	918.39734	-601.38434	-464.16052	1037.5188	-424.27869	-543.32397	658.57391	-175.43777	-631.09473	763.5365	-170.99652	-684.6908	564.14893	-559.10645	-777.49268	616.93292	-539.14874
